<svg width="75" height="75" viewBox="0 0 75 75" fill="none" xmlns="http://www.w3.org/2000/svg">
<path d="M37.5 68.75C54.7589 68.75 68.75 54.7589 68.75 37.5C68.75 20.2411 54.7589 6.25 37.5 6.25C20.2411 6.25 6.25 20.2411 6.25 37.5C6.25 54.7589 20.2411 68.75 37.5 68.75Z" stroke="white" stroke-width="4" stroke-linecap="round" stroke-linejoin="round"/>
<path d="M41 31H51.6667C53.0812 31 54.4377 30.4381 55.4379 29.4379C56.4381 28.4377 57 27.0812 57 25.6667C57 24.2522 56.4381 22.8956 55.4379 21.8954C54.4377 20.8952 53.0812 20.3333 51.6667 20.3333H41V31ZM41 31H53C54.4145 31 55.771 31.5619 56.7712 32.5621C57.7714 33.5623 58.3333 34.9188 58.3333 36.3333C58.3333 37.7478 57.7714 39.1044 56.7712 40.1046C55.771 41.1048 54.4145 41.6667 53 41.6667H41V31Z" stroke="white" stroke-width="4" stroke-linecap="round" stroke-linejoin="round"/>
<path d="M27.3272 22.025C26.7942 22.23 25.6052 23.583 25.6052 23.993C25.6052 24.2595 25.5232 24.2595 24.9902 23.9725C24.1292 23.5215 22.3662 23.583 21.5462 24.075C20.5212 24.7105 20.0702 25.6125 20.0702 27.0885V28.3595L19.5167 28.052C18.1022 27.3345 16.1957 28.0315 15.5192 29.5485C15.1297 30.4505 15.1092 30.7785 15.2117 39.0195C15.2937 46.5635 15.3552 47.773 15.7242 49.495C17.0157 55.522 19.4552 58.9045 23.5347 60.3805C24.7237 60.811 25.2362 60.8725 27.7577 60.8725C31.2017 60.852 32.6367 60.5445 35.4452 59.171C39.8527 57.0185 43.3787 51.8935 42.4152 49.003C42.2717 48.5315 41.3082 47.322 39.8527 45.7435L37.5157 43.2425L37.4952 34.53C37.4952 26.207 37.4747 25.797 37.0852 25.141C36.2447 23.7675 34.2152 23.2345 32.7597 23.993C32.4112 24.157 32.1037 24.28 32.1037 24.239C31.1402 22.2915 30.5047 21.82 28.8647 21.8405C28.2497 21.8405 27.5732 21.9225 27.3272 22.025ZM29.9102 23.255C30.7917 23.7265 30.8327 24.0135 30.9352 32.7875L31.0377 41.1925H31.5502H32.0627L32.1652 33.6485L32.2677 26.084L32.9442 25.4895C33.8872 24.6285 34.8507 24.6695 35.7732 25.592L36.4702 26.289V34.2225V42.1355L36.0192 41.828C35.3222 41.336 27.2657 41.3565 26.5072 41.828C25.8307 42.279 25.4002 43.14 25.4002 44.0625C25.4002 45.3335 26.6917 47.3425 27.8807 47.978C28.6187 48.347 34.1742 49.495 34.5637 49.3515C34.9532 49.1875 34.8917 48.306 34.4817 48.183C34.2767 48.142 33.0057 47.8755 31.6527 47.6295C28.5367 47.076 28.0242 46.83 27.2452 45.5795C26.5277 44.411 26.4662 43.796 27.0197 43.1195C27.4092 42.6275 27.4707 42.6275 31.1812 42.6275C34.1947 42.6275 35.0147 42.689 35.3427 42.935C35.9782 43.4065 40.8777 48.716 41.1647 49.2285C41.6772 50.2125 41.3082 51.381 39.8117 53.636C37.8847 56.547 34.7892 58.5765 31.0992 59.335C24.1087 60.7905 19.7627 58.351 17.6102 51.7705C16.6057 48.6545 16.3802 46.1535 16.3802 37.687V30.184L16.9747 29.5895C17.8767 28.708 19.1067 28.831 19.7012 29.8765C19.8857 30.2045 19.9882 31.906 20.0702 35.76C20.1727 40.8645 20.1932 41.1925 20.5622 41.254C20.7672 41.295 21.0132 41.213 21.1157 41.049C21.2182 40.9055 21.3002 37.482 21.3002 33.4435V26.084L21.8947 25.4895C22.6942 24.7105 23.8832 24.6695 24.7237 25.387L25.2977 25.879L25.4002 33.341L25.5027 40.7825L26.0767 40.844L26.6302 40.9055V33.1565C26.6302 28.4825 26.7122 25.1 26.8352 24.649C27.2042 23.3165 28.7417 22.64 29.9102 23.255Z" fill="white"/>
</svg>
